<svg width="280" height="41" viewBox="0 0 280 41" fill="none" xmlns="http://www.w3.org/2000/svg">
<g clip-path="url(#clip0_37_669)">
<path d="M279.659 26.1204C279.659 18.0611 274.163 13.3648 266.919 13.3648C263.393 13.2374 259.975 14.5891 257.491 17.0932C255.006 19.5974 253.682 23.026 253.837 26.55C253.684 30.0869 255.005 33.5288 257.484 36.0558C259.963 38.5828 263.379 39.9687 266.919 39.8834C269.586 39.9194 272.217 39.2554 274.548 37.9574C276.972 36.5536 278.724 34.2292 279.407 31.513H274.03C272.726 33.8537 270.4 34.9945 267.111 34.9945C262.667 34.9945 259.363 31.513 259.363 28.1945H279.57C279.659 27.3056 279.659 26.713 279.659 26.1204ZM259.393 23.5871C260.139 20.1903 263.255 17.8484 266.726 18.076C270.533 18.076 273.659 20.3574 274.133 23.5871H259.393ZM21.6296 29.9278C20.1002 33.1882 16.5026 34.939 12.9931 34.1307C9.48364 33.3225 7.01428 30.1744 7.06511 26.5734C7.11595 22.9724 9.6732 19.8953 13.2041 19.1864C16.735 18.4776 20.2817 20.3292 21.7185 23.6315H27.6444C26.1432 17.05 19.9599 12.629 13.2466 13.337C6.53326 14.045 1.40831 19.6587 1.31301 26.4085C1.21772 33.1584 6.18216 38.9145 12.8728 39.8118C19.5635 40.709 25.8691 36.4643 27.5556 29.9278H21.6296ZM48.7852 14.4908C47.118 13.7093 45.2927 13.3239 43.4519 13.3648C41.5431 13.3851 39.6809 13.9561 38.0889 15.0093V14.2685H32.6815V38.9797H38.1185V27.1278C38.0352 25.515 38.1497 23.898 38.4593 22.313V22.1945C38.7805 21.1412 39.5046 20.2574 40.4741 19.7352C42.2813 18.5829 44.5928 18.5829 46.4 19.7352L48.7852 14.4908ZM69.4815 14.2537V26.1056C69.5648 27.7184 69.4503 29.3354 69.1407 30.9204V31.0389C68.8195 32.0922 68.0954 32.976 67.1259 33.4982C65.3187 34.6505 63.0072 34.6505 61.2 33.4982C60.2305 32.976 59.5064 32.0922 59.1852 31.0389V30.9204C58.8756 29.3354 58.7612 27.7184 58.8444 26.1056V14.2537H53.4074V27.7352C53.2795 29.9438 53.5969 32.1555 54.3407 34.2389C55.1886 36.2415 56.7826 37.8355 58.7852 38.6834C60.4524 39.4649 62.2777 39.8502 64.1185 39.8093C66.0272 39.789 67.8895 39.218 69.4815 38.1648V38.9056H74.963V14.2537H69.4815ZM87.0815 38.9797V27.1278C86.9982 25.515 87.1126 23.898 87.4222 22.313V22.1945C87.7435 21.1412 88.4676 20.2574 89.437 19.7352C91.2443 18.5829 93.5557 18.5829 95.363 19.7352C96.3324 20.2574 97.0565 21.1412 97.3778 22.1945V22.313C97.6874 23.898 97.8018 25.515 97.7185 27.1278V38.9797H103.111V25.4834C103.239 23.2748 102.922 21.0631 102.178 18.9797C101.33 16.9771 99.7359 15.3831 97.7333 14.5352C96.0661 13.7537 94.2408 13.3684 92.4 13.4093C90.4913 13.4296 88.629 14.0006 87.037 15.0537V14.313H81.6444V38.9797H87.0815ZM128.385 29.9278C126.856 33.1882 123.258 34.939 119.749 34.1307C116.239 33.3225 113.77 30.1744 113.821 26.5734C113.872 22.9724 116.429 19.8953 119.96 19.1864C123.491 18.4776 127.037 20.3292 128.474 23.6315H134.4C132.806 17.0718 126.561 12.7383 119.858 13.5409C113.156 14.3435 108.11 20.029 108.11 26.7797C108.11 33.5303 113.156 39.2158 119.858 40.0184C126.561 40.8211 132.806 36.4875 134.4 29.9278H128.385ZM144.844 38.9797V27.1278C144.761 25.515 144.876 23.898 145.185 22.313V22.1945C145.506 21.1412 146.231 20.2574 147.2 19.7352C149.007 18.5829 151.319 18.5829 153.126 19.7352C154.095 20.2574 154.819 21.1412 155.141 22.1945V22.313C155.45 23.898 155.565 25.515 155.481 27.1278V38.9797H160.889V25.4834C161.017 23.2748 160.699 21.0631 159.956 18.9797C159.108 16.9771 157.514 15.3831 155.511 14.5352C153.844 13.7537 152.019 13.3684 150.178 13.4093C148.269 13.4296 146.407 14.0006 144.815 15.0537V0.816695H139.407V38.9797H144.844ZM180.548 13.35H179.57C177.232 13.5208 174.981 14.3136 173.052 15.6463V0.80188H167.644V38.9797H173.081V37.5871C177.812 40.914 184.148 40.8119 188.769 37.3342C193.39 33.8565 195.242 27.7964 193.355 22.3296C191.468 16.8628 186.271 13.2361 180.489 13.35H180.548ZM188.119 27.6315V27.8685C188.069 28.1837 188 28.4954 187.911 28.8019C187.81 29.1309 187.686 29.4527 187.541 29.7648V29.8834C186.523 31.9958 184.598 33.5286 182.311 34.0463L181.585 34.1648H181.481C181.205 34.1801 180.928 34.1801 180.652 34.1648C180.305 34.1637 179.958 34.139 179.615 34.0908H179.378C178.707 33.9812 178.054 33.7819 177.437 33.4982H177.289C176.666 33.1924 176.088 32.8037 175.57 32.3426C175.049 31.8684 174.596 31.3251 174.222 30.7278C174.037 30.4235 173.874 30.1067 173.733 29.7797C172.851 27.7668 172.884 25.4706 173.822 23.4834C174.968 21.0641 177.293 19.4184 179.956 19.1426C180.217 19.129 180.479 19.129 180.741 19.1426C184.959 19.1508 188.377 22.5685 188.385 26.7871C188.313 27.0735 188.224 27.3554 188.119 27.6315ZM249.437 21.6463V21.5278C249.437 17.4982 246.341 13.3945 239.437 13.3204C232.533 13.2463 229.541 17.3797 229.452 21.35V21.6463C229.6 23.9723 230.933 26.9352 236.089 28.15L240.681 29.1871C241.867 29.4537 243.881 30.1204 244.044 31.6315C244.044 33.7204 241.363 34.8167 239.437 34.8167C237.215 34.8167 234.83 33.5871 234.83 31.6167V31.4982H229.452V31.6167C229.452 35.6463 232.548 39.75 239.452 39.8241C246.356 39.8982 249.452 35.6611 249.452 31.6167V31.4982C249.333 29.1426 248.059 26.1352 242.815 24.9204L238.222 23.8834C237.215 23.6611 234.859 22.9797 234.859 21.4834C234.859 19.1426 237.244 18.313 239.467 18.313C241.689 18.313 244.074 19.5426 244.074 21.513V21.6315L249.437 21.6463ZM198.267 26.6241C198.312 31.5217 201.039 36.0002 205.369 38.289C209.699 40.5778 214.935 40.3083 219.007 37.5871V38.9797H224.444V14.2537H219.037V15.7352C217.108 14.4025 214.857 13.6097 212.518 13.4389H211.541C204.257 13.4708 198.348 19.3413 198.267 26.6241ZM203.881 26.6241C203.89 22.4056 207.307 18.9878 211.526 18.9797C211.787 18.9661 212.05 18.9661 212.311 18.9797C214.974 19.2554 217.299 20.9012 218.444 23.3204C219.383 25.3076 219.415 27.6038 218.533 29.6167C218.393 29.9437 218.229 30.2606 218.044 30.5648C217.671 31.1621 217.217 31.7054 216.696 32.1797C216.178 32.6407 215.6 33.0294 214.978 33.3352H214.83C214.212 33.6189 213.559 33.8183 212.889 33.9278H212.652C212.308 33.976 211.962 34.0008 211.615 34.0019C211.338 34.0171 211.062 34.0171 210.785 34.0019H210.681L209.956 33.8834C207.676 33.4359 205.721 31.982 204.637 29.9278V29.8093C204.492 29.4971 204.368 29.1754 204.267 28.8463C204.178 28.5399 204.109 28.2282 204.059 27.913V27.676C203.966 27.3306 203.896 26.9792 203.852 26.6241H203.881Z" fill="black" fill-opacity="0.2"/>
</g>
<defs>
<clipPath id="clip0_37_669">
<rect width="280" height="40" fill="white" transform="translate(0 0.80188)"/>
</clipPath>
</defs>
</svg>
