<svg width="16" height="16" viewBox="0 0 16 16" fill="none" xmlns="http://www.w3.org/2000/svg">
<path d="M6.5 6.05554C5.67163 6.05554 5 6.72711 5 7.55554C5 8.38397 5.67163 9.05554 6.5 9.05554H9.5C10.3284 9.05554 11 8.38397 11 7.55554C11 6.72711 10.3284 6.05554 9.5 6.05554H6.5Z" fill="white"/>
<path fill-rule="evenodd" clip-rule="evenodd" d="M0.166138 2.98491C3.17432 2.94504 5.91528 1.82339 8 0C10.0847 1.82339 12.8257 2.94504 15.8339 2.98491C15.9431 3.62088 16 4.27419 16 4.94049C16 10.0464 12.6608 14.3902 8 16C3.33923 14.3902 0 10.0464 0 4.94049C0 4.27419 0.0568848 3.62088 0.166138 2.98491ZM4 7.55554C4 6.17484 5.11926 5.05554 6.5 5.05554H9.5C10.8807 5.05554 12 6.17484 12 7.55554C12 8.93625 10.8807 10.0555 9.5 10.0555H6.5C5.11926 10.0555 4 8.93625 4 7.55554Z" fill="white"/>
</svg>
