<svg width="188" height="41" viewBox="0 0 188 41" fill="none" xmlns="http://www.w3.org/2000/svg">
<g clip-path="url(#clip0_38_1072)">
<path d="M78.2222 8.80183V32.8018H74.0555V13.9685H74L66.5556 32.8018H63.7778L56.1667 13.9685H56.1111V32.8018H52.2778V8.80183H58.2778L65.1667 26.5796H65.2778L72.5555 8.80183H78.2222ZM81.6667 10.6352C81.6667 9.96849 81.8889 9.41294 82.3889 8.96849C82.8889 8.52405 83.4444 8.30183 84.1111 8.30183C84.8333 8.30183 85.4444 8.52405 85.8889 8.96849C86.3333 9.41294 86.6111 9.96849 86.6111 10.6352C86.6111 11.3018 86.3889 11.8574 85.8889 12.3018C85.3889 12.7463 84.8333 12.9685 84.1111 12.9685C83.3889 12.9685 82.8333 12.7463 82.3889 12.3018C81.9444 11.8018 81.6667 11.2463 81.6667 10.6352ZM86.1667 15.5796V32.8018H82.1111V15.5796H86.1667ZM98.4444 29.8574C99.0556 29.8574 99.7222 29.7463 100.444 29.4129C101.167 29.1352 101.833 28.7463 102.444 28.3018V32.0796C101.778 32.4685 101.056 32.7463 100.222 32.9129C99.3889 33.0796 98.5 33.1907 97.5 33.1907C94.9444 33.1907 92.8889 32.4129 91.3333 30.8018C89.7222 29.1907 88.9444 27.1352 88.9444 24.6907C88.9444 21.9129 89.7778 19.6352 91.3889 17.8574C93 16.0796 95.2778 15.1907 98.2778 15.1907C99.0556 15.1907 99.8333 15.3018 100.556 15.4685C101.333 15.6352 101.944 15.9129 102.389 16.1352V20.024C101.778 19.5796 101.111 19.1907 100.5 18.9685C99.8333 18.7463 99.1667 18.5796 98.5 18.5796C96.8889 18.5796 95.6111 19.0796 94.6111 20.1352C93.6111 21.1907 93.1667 22.5796 93.1667 24.3574C93.1667 26.0796 93.6667 27.4685 94.6111 28.4129C95.5555 29.3574 96.8333 29.8574 98.4444 29.8574ZM113.944 15.3018C114.278 15.3018 114.556 15.3018 114.833 15.3574C115.111 15.4129 115.333 15.4685 115.5 15.524V19.6352C115.278 19.4685 115 19.3018 114.556 19.1907C114.111 19.0796 113.667 18.9685 113.056 18.9685C112.056 18.9685 111.222 19.4129 110.556 20.2463C109.889 21.0796 109.5 22.3574 109.5 24.1352V32.8018H105.444V15.5796H109.5V18.3018H109.556C109.944 17.3574 110.5 16.6352 111.222 16.0796C112 15.5796 112.889 15.3018 113.944 15.3018ZM115.722 24.4685C115.722 21.6352 116.556 19.3574 118.111 17.6907C119.722 16.024 121.944 15.1907 124.778 15.1907C127.444 15.1907 129.556 15.9685 131.056 17.5796C132.556 19.1907 133.333 21.3574 133.333 24.0796C133.333 26.8574 132.5 29.0796 130.944 30.7463C129.333 32.4129 127.167 33.2463 124.389 33.2463C121.722 33.2463 119.611 32.4685 118.056 30.9129C116.5 29.3018 115.722 27.1352 115.722 24.4685ZM119.944 24.3018C119.944 26.0796 120.333 27.4685 121.167 28.4129C122 29.3574 123.167 29.8574 124.667 29.8574C126.111 29.8574 127.278 29.4129 128.056 28.4129C128.833 27.4685 129.222 26.0796 129.222 24.1907C129.222 22.3574 128.833 20.9685 128.056 19.9685C127.278 19.024 126.111 18.524 124.722 18.524C123.222 18.524 122.111 19.024 121.278 20.024C120.333 21.0796 119.944 22.4685 119.944 24.3018ZM139.389 20.1352C139.389 20.6907 139.556 21.1907 139.944 21.524C140.333 21.8574 141.111 22.2463 142.389 22.7463C144 23.4129 145.167 24.1352 145.778 24.9129C146.444 25.7463 146.778 26.6907 146.778 27.8574C146.778 29.4685 146.167 30.7463 144.889 31.7463C143.667 32.7463 141.944 33.1907 139.833 33.1907C139.111 33.1907 138.333 33.0796 137.444 32.9129C136.556 32.7463 135.833 32.524 135.222 32.2463V28.2463C135.944 28.7463 136.778 29.1907 137.611 29.4685C138.444 29.7463 139.222 29.9129 139.944 29.9129C140.833 29.9129 141.556 29.8018 141.944 29.524C142.389 29.2463 142.611 28.8574 142.611 28.2463C142.611 27.6907 142.389 27.2463 141.944 26.8018C141.5 26.4129 140.611 25.9685 139.389 25.4685C137.889 24.8574 136.833 24.1352 136.222 23.3574C135.611 22.5796 135.278 21.5796 135.278 20.3574C135.278 18.8018 135.889 17.524 137.111 16.524C138.333 15.524 139.944 15.024 141.889 15.024C142.5 15.024 143.167 15.0796 143.889 15.2463C144.611 15.4129 145.278 15.5796 145.778 15.7463V19.6907C145.222 19.3574 144.611 19.024 143.889 18.7463C143.167 18.4685 142.444 18.3574 141.778 18.3574C141 18.3574 140.389 18.524 140 18.8018C139.611 19.1907 139.389 19.5796 139.389 20.1352ZM148.5 24.4685C148.5 21.6352 149.333 19.3574 150.889 17.6907C152.5 16.024 154.722 15.1907 157.556 15.1907C160.222 15.1907 162.333 15.9685 163.833 17.5796C165.333 19.1907 166.111 21.3574 166.111 24.0796C166.111 26.8574 165.278 29.0796 163.722 30.7463C162.111 32.4129 159.944 33.2463 157.167 33.2463C154.5 33.2463 152.389 32.4685 150.833 30.9129C149.333 29.3018 148.5 27.1352 148.5 24.4685ZM152.722 24.3018C152.722 26.0796 153.111 27.4685 153.944 28.4129C154.778 29.3574 155.944 29.8574 157.444 29.8574C158.889 29.8574 160.056 29.4129 160.833 28.4129C161.611 27.4685 162 26.0796 162 24.1907C162 22.3574 161.611 20.9685 160.833 19.9685C160.056 19.024 158.889 18.524 157.5 18.524C156 18.524 154.889 19.024 154.056 20.024C153.167 21.0796 152.722 22.4685 152.722 24.3018ZM179.611 18.9129H173.556V32.8018H169.444V18.9129H166.556V15.5796H169.444V13.1907C169.444 11.4129 170.056 9.91294 171.222 8.74627C172.389 7.5796 173.889 7.02405 175.722 7.02405C176.222 7.02405 176.667 7.0796 177.056 7.0796C177.444 7.0796 177.778 7.19071 178.056 7.30183V10.8018C177.944 10.7463 177.667 10.6352 177.333 10.524C177 10.4129 176.611 10.3574 176.167 10.3574C175.333 10.3574 174.667 10.6352 174.222 11.1352C173.778 11.6352 173.556 12.4685 173.556 13.4685V15.524H179.611V11.6352L183.667 10.4129V15.524H187.778V18.8574H183.667V26.9129C183.667 27.9685 183.889 28.6907 184.222 29.1352C184.611 29.5796 185.222 29.8018 186.056 29.8018C186.278 29.8018 186.556 29.7463 186.889 29.6352C187.222 29.524 187.5 29.4129 187.722 29.2463V32.5796C187.444 32.7463 187.056 32.8574 186.444 32.9685C185.833 33.0796 185.278 33.1352 184.667 33.1352C182.944 33.1352 181.667 32.6907 180.833 31.8018C180 30.9129 179.556 29.524 179.556 27.6907L179.611 18.9129Z" fill="black" fill-opacity="0.2"/>
<path d="M19.2222 0.80188H0.222229V19.8019H19.2222V0.80188Z" fill="black" fill-opacity="0.2"/>
<path d="M40.2222 0.80188H21.2222V19.8019H40.2222V0.80188Z" fill="black" fill-opacity="0.2"/>
<path d="M19.2222 21.8019H0.222229V40.8019H19.2222V21.8019Z" fill="black" fill-opacity="0.2"/>
<path d="M40.2222 21.8019H21.2222V40.8019H40.2222V21.8019Z" fill="black" fill-opacity="0.2"/>
</g>
<defs>
<clipPath id="clip0_38_1072">
<rect width="187.556" height="40" fill="white" transform="translate(0.222229 0.80188)"/>
</clipPath>
</defs>
</svg>
