<svg width="264" height="41" viewBox="0 0 264 41" fill="none" xmlns="http://www.w3.org/2000/svg">
<path d="M18.0925 28.7619C18.48 29.6694 18.3525 30.8344 18.1575 31.5469C17.8325 32.7769 16.9925 34.0719 14.5325 34.0719C12.205 34.0719 10.7825 32.7119 10.7825 30.7044V27.0794H0.75V29.9294C0.75 38.2769 7.285 40.8019 14.34 40.8019C21.07 40.8019 26.635 38.4719 27.54 32.2594C27.9925 29.0219 27.67 26.9519 27.475 26.1094C25.925 18.2769 11.75 15.9469 10.65 11.6094C10.4575 10.8344 10.5225 10.0594 10.585 9.66938C10.845 8.50438 11.685 7.14438 14.015 7.14438C16.215 7.14438 17.51 8.50438 17.51 10.5094V12.8419H26.83V10.1869C26.83 2.03188 19.5175 0.80188 14.21 0.80188C7.545 0.80188 2.1725 3.00188 1.1375 9.08688C0.879999 10.7694 0.812499 12.2594 1.2025 14.1369C2.885 21.7069 16.1525 23.9094 18.0925 28.7619ZM139.427 28.6994C139.815 29.6044 139.685 30.7694 139.492 31.4169C139.167 32.6469 138.327 33.8769 135.867 33.8769C133.537 33.8769 132.18 32.5169 132.18 30.5094V26.9519H122.28V29.7994C122.28 38.0194 128.75 40.5419 135.737 40.5419C142.405 40.5419 147.905 38.2769 148.812 32.0644C149.262 28.8919 148.937 26.7569 148.745 25.9794C147.192 18.2119 133.15 15.9469 132.115 11.6119C131.92 10.8344 131.985 10.0569 132.05 9.66938C132.31 8.50438 133.085 7.20938 135.415 7.20938C137.55 7.20938 138.845 8.56938 138.845 10.5744V12.8419H148.097V10.2519C148.097 2.22688 140.85 0.93188 135.61 0.93188C129.072 0.93188 123.702 3.13188 122.667 9.15188C122.407 10.7694 122.342 12.2594 122.732 14.1344C124.415 21.7094 137.55 23.9094 139.427 28.6994ZM216.887 31.9994L216.37 1.96688H225.622V38.8594H212.292L202.91 7.85688L203.427 38.8594H194.237V1.96688H208.087L216.887 31.9994ZM49.0875 4.68438L43.9125 39.2494H33.8175L40.6775 1.96688H57.3075L64.1675 39.2494H54.1375L49.0875 4.68438ZM103.577 4.68438L97.105 39.2519H87.6575L81.2525 4.68438L80.9925 39.2494H71.675L72.45 1.96688H87.6575L92.3825 31.0919L97.1075 1.96688H112.312L113.155 39.2494H103.835L103.577 4.68438ZM170.747 33.6844C173.335 33.6844 174.177 31.8694 174.307 30.9644C174.372 30.5744 174.372 29.9919 174.372 29.5394V1.90188H183.82V28.7019C183.82 29.4119 183.755 30.7719 183.755 31.1594C183.107 38.1519 177.605 40.4169 170.747 40.4169C163.887 40.4169 158.387 38.1519 157.74 31.1594C157.675 30.7719 157.61 29.4119 157.675 28.7019V1.90188H167.125V29.5394C167.125 29.9919 167.125 30.5744 167.187 30.9644C167.382 31.9344 168.16 33.6819 170.747 33.6819V33.6844ZM248.66 33.2944C251.377 33.2944 252.285 31.5444 252.477 30.5744C252.542 30.1244 252.607 29.6044 252.542 29.1494V23.7144H248.725V18.2769H261.925V28.3094C261.925 29.0219 261.925 29.5394 261.797 30.7694C261.15 37.5669 255.26 39.9594 248.66 39.9594C242.06 39.9594 236.17 37.5669 235.525 30.7694C235.395 29.5394 235.395 29.0219 235.395 28.3094V12.5819C235.395 11.9344 235.46 10.7694 235.525 10.1219C236.365 3.13188 241.995 0.93188 248.66 0.93188C255.26 0.93188 261.085 3.13188 261.732 10.1219C261.862 11.2869 261.797 12.5819 261.797 12.5819V13.8119H252.347V11.7394C252.347 11.7394 252.347 10.8344 252.22 10.3144C252.025 9.47438 251.315 7.59688 248.467 7.59688C245.747 7.59688 244.972 9.40938 244.777 10.3169C244.647 10.8344 244.647 11.4819 244.647 12.0644V29.1519C244.647 29.6044 244.647 30.1219 244.712 30.5769C244.972 31.6119 245.942 33.2944 248.662 33.2944H248.66Z" fill="black" fill-opacity="0.2"/>
</svg>
