<svg width="236" height="41" viewBox="0 0 236 41" fill="none" xmlns="http://www.w3.org/2000/svg">
<g clip-path="url(#clip0_37_648)">
<path d="M55 36.3029C55 37.5134 54.73 38.8099 53.795 39.8019H78V27.6519C76.32 28.4224 74.25 28.8029 72.25 28.8029H67V24.8019H69.75C71.25 24.8019 72.575 24.9469 74 25.5519V15.0519C72.575 15.6559 71.25 15.8019 69.75 15.8019L67 15.8029V11.3019H72.25C74.25 11.3019 76.32 11.6804 78 12.4519V0.80288H53.75C54.68 1.61188 55 3.09188 55 4.30288V36.3029ZM34 15.8019V11.8019H34.507C35.877 11.8019 37.466 12.0234 38.5 12.5729V0.80288H21.5105V39.8019H35.25C34.318 38.9929 34 37.5129 34 36.3019V25.3019H40.5V36.3019C40.5 37.5129 40.182 38.9929 39.25 39.8019H53V0.80288L40.5 0.80188V15.8019H34ZM4.0555 11.8019H7V36.3019C7 37.5129 6.6825 38.9929 5.75 39.8019H19.5V0.80188L0 0.80288V12.5729C1.0965 12.0234 2.686 11.8019 4.0555 11.8019ZM210.986 15.8019H196.025C195.26 15.8019 194.381 15.7284 193.501 15.4519V25.1519C194.381 24.8774 195.26 24.8019 196.025 24.8019H200.001V27.8019C199.51 28.2434 198.436 28.4874 197.34 28.4874C192.79 28.4874 189.451 24.8979 189.451 20.5519C189.451 16.2039 192.701 12.3019 197.251 12.3019C200.001 12.3019 203.101 13.2029 206.501 14.8059V0.80188L196.501 0.80188C185.706 0.80188 177.1 9.15788 177.1 20.4534C177.1 31.5139 185.766 40.8019 197.001 40.8019C203.191 40.8019 208.96 38.2829 211.975 35.2009C211.37 34.0999 210.986 32.9999 210.986 31.6789V15.8019ZM230.251 11.3019C232.251 11.3019 234.321 11.6804 236.001 12.4519V0.80288H211.751C212.68 1.61188 213.001 3.09188 213.001 4.30288V36.3029C213.001 37.5134 212.73 38.8099 211.796 39.8019H236.001V27.6519C234.321 28.4224 232.251 28.8029 230.251 28.8029H225.001V24.8019H227.751C229.251 24.8019 230.576 24.9469 232.001 25.5519V15.0519C230.576 15.6559 229.251 15.8019 227.751 15.8019L225.001 15.8029V11.3019H230.251ZM172.251 22.2019C174.331 19.9024 175.6 16.8859 175.6 13.8189C175.6 4.83588 168.911 0.80538 161.736 0.80638L146.255 0.80338C147.185 1.60888 147.5 3.07838 147.505 4.28588L147.501 36.3019C147.501 37.5069 147.18 38.8159 146.251 39.8019H161.145C160.215 38.8159 160.001 37.4439 160.001 36.3019V28.3644C164.275 29.1769 167.115 33.1434 167.115 36.3184C167.115 37.5234 166.835 38.8159 165.906 39.8019H180.76C179.831 38.8159 179.586 37.3899 179.501 36.1879C179.001 29.3019 176.635 24.4474 172.251 22.2019ZM160.001 18.3519V11.2519C162.001 11.2519 164.551 11.8019 164.551 14.8019C164.551 17.8019 162.001 18.3519 160.001 18.3519ZM105.501 22.3019L101.501 11.3019H107.501L111.501 0.80188L83.5005 0.80188C84.3805 1.68438 85.1955 2.67388 85.8005 3.83088L101.29 39.8019H109.751L122.501 9.80188V36.3019C122.491 37.5439 122.181 38.9929 121.251 39.8019H145.501V27.6519C143.84 28.4234 141.751 29.3019 139.751 29.3019H134.501V24.8019H137.251C138.751 24.8019 140.076 24.9479 141.501 25.5519V15.0519C140.076 15.6564 138.751 15.8019 137.251 15.8019H134.501V11.8019H139.751C141.751 11.8019 143.84 12.1814 145.501 12.9519V0.80288L113.501 0.80188L105.501 22.3019Z" fill="black" fill-opacity="0.2"/>
</g>
<defs>
<clipPath id="clip0_37_648">
<rect width="236" height="40" fill="white" transform="translate(0 0.80188)"/>
</clipPath>
</defs>
</svg>
